<?xml version="1.0" standalone="no"?>
<!DOCTYPE svg PUBLIC "-//W3C//DTD SVG 20010904//EN"
 "http://www.w3.org/TR/2001/REC-SVG-20010904/DTD/svg10.dtd">
<svg version="1.0" xmlns="http://www.w3.org/2000/svg"
 width="1024.000000pt" height="1024.000000pt" viewBox="0 0 1024.000000 1024.000000"
 preserveAspectRatio="xMidYMid meet">

<g transform="translate(0.000000,1024.000000) scale(0.100000,-0.100000)"
fill="#000000" stroke="none">
<path d="M0 5120 l0 -5120 5120 0 5120 0 0 5120 0 5120 -5120 0 -5120 0 0
-5120z m5709 2091 c163 -51 304 -209 340 -379 6 -29 11 -112 11 -185 l0 -132
-192 -192 -193 -193 -1132 0 -1133 0 0 -298 0 -297 128 -91 c134 -96 364 -259
578 -409 70 -49 161 -114 202 -144 l74 -54 -103 -103 c-57 -57 -108 -104 -113
-104 -5 0 -83 53 -175 118 -283 203 -582 412 -587 412 -2 0 -4 -466 -4 -1035
l0 -1035 1795 0 1795 0 0 949 0 949 138 123 c75 68 139 127 140 131 2 4 8 8
13 8 13 0 12 -2234 -1 -2282 -17 -60 -69 -119 -135 -153 l-59 -30 -1896 1
-1896 1 -50 26 c-61 31 -106 79 -128 138 -15 40 -16 181 -14 1679 l3 1635 27
46 c15 25 43 58 64 74 69 53 90 55 561 55 l433 0 0 176 c0 198 11 260 63 359
57 108 182 209 296 241 34 9 179 12 568 13 485 1 525 0 582 -18z m1184 -485
c39 -17 312 -293 327 -330 15 -39 12 -103 -5 -140 -8 -17 -68 -85 -133 -149
l-119 -118 -236 243 -237 243 128 127 c74 73 138 128 152 131 50 9 91 7 123
-7z m-256 -583 l233 -238 -1148 -1142 -1147 -1142 -235 234 -235 235 1145
1145 c630 630 1147 1145 1150 1145 3 0 110 -107 237 -237z m663 -542 l0 -209
-142 -108 c-79 -60 -192 -146 -253 -192 -60 -47 -217 -165 -349 -264 l-238
-179 -149 -2 c-82 -1 -149 0 -149 3 0 3 15 19 32 35 18 17 161 152 318 301
157 150 344 323 415 385 207 181 508 439 512 439 2 0 3 -94 3 -209z m-3215
-1866 c-30 -85 -53 -155 -52 -155 1 0 74 20 162 45 l160 44 52 -51 c29 -29 50
-55 45 -59 -4 -4 -142 -51 -307 -104 -165 -53 -324 -105 -352 -115 -29 -11
-53 -15 -53 -10 0 5 18 49 41 97 59 126 207 448 236 513 l25 55 49 -53 48 -53
-54 -154z"/>
<path d="M4609 6907 c-29 -16 -54 -40 -74 -72 -30 -48 -30 -49 -33 -222 l-3
-173 630 0 631 0 0 153 c0 173 -8 213 -53 264 -65 74 -55 73 -583 73 l-471 0
-44 -23z"/>
</g>
</svg>
